#!OML:ASF H:\GeneralSubjects\Female5\Project 1\Capture day 1\Session 1\Female5.ASF
:FULLY-SPECIFIED
:DEGREES
523
root 2.14452 15.4241 0.157317 -185.738 0.698446 -173.741
lowerback 10.5837 0.218827 7.04249
upperback -8.08044 2.51966 2.92748
thorax -14.9183 0.888735 -1.31491
lowerneck -17.9911 5.06076 9.09384
upperneck 32.5418 2.70847 -0.622179
head 14.4188 1.48937 -1.52618
rclavicle 1.2424e-014 -3.18055e-015
rhumerus -47.8086 12.9265 -63.467
rradius 41.2829
rwrist -13.3842
rhand -24.6323 -16.9002
rfingers 7.12502
rthumb 1.86668 -46.8718
lclavicle 1.2424e-014 -3.18055e-015
lhumerus -53.4751 -19.0505 90.1762
lradius 45.593
lwrist -19.6835
lhand -36.1386 23.3288
lfingers 7.12502
lthumb -9.24355 53.1061
rfemur -2.87251 19.5432 32.4657
rtibia 15.6382
rfoot 354.664 2.28219
rtoes -9.88911
lfemur -11.1564 -2.82436 -10.3829
ltibia 66.0537
lfoot 345.185 18.7507
ltoes -70.0356
524
root 2.03646 15.4041 0.21828 -185.345 1.0223 -173.549
lowerback 9.81173 0.092053 6.93359
upperback -8.24798 2.24116 2.68827
thorax -14.6384 0.765871 -1.44475
lowerneck -17.4748 4.7301 8.61731
upperneck 31.8225 2.43126 -0.444306
head 13.948 1.33364 -1.4198
rclavicle 4.96962e-015 -1.5704e-014
rhumerus -48.7519 12.6879 -63.0602
rradius 40.2992
rwrist -12.5405
rhand -24.9308 -17.3854
rfingers 7.12502
rthumb 1.5784 -47.3593
lclavicle 4.96962e-015 -1.5704e-014
lhumerus -52.151 -18.9345 89.5821
lradius 47.2207
lwrist -19.8881
lhand -35.6648 23.2557
lfingers 7.12502
lthumb -8.78638 53.0528
rfemur -3.65454 20.2543 32.1764
rtibia 15.9223
rfoot 354.525 2.16998
rtoes -8.28881
lfemur -7.50782 -3.71875 -9.51101
ltibia 63.0276
lfoot 345.334 18.1781
ltoes -69.9516
525
root 1.90581 15.3576 0.279894 -184.347 1.09175 -173.492
lowerback 8.43072 -0.101617 6.8241
upperback -8.59744 1.87565 2.45433
thorax -14.2019 0.623912 -1.54727
lowerneck -17.4267 4.58374 8.71124
upperneck 31.3785 2.38335 -0.828252
head 13.7438 1.28034 -1.59108
rclavicle 4.87022e-015 -1.43125e-014
rhumerus -49.8791 12.645 -62.7097
rradius 39.7136
rwrist -11.7475
rhand -25.3156 -18.1055
rfingers 7.12502
rthumb 1.2068 -48.0819
lclavicle 4.87022e-015 -1.43125e-014
lhumerus -50.8832 -18.6024 88.9531
lradius 48.9877
lwrist -19.9615
lhand -35.2896 23.0224
lfingers 7.12502
lthumb -8.42422 52.8344
rfemur -5.38044 20.7769 31.1155
rtibia 16.3795
rfoot 354.354 2.17583
rtoes -7.63663
lfemur -4.79579 -4.95148 -9.30137
ltibia 59.7446
lfoot 345.818 18.567
ltoes -69.8247
526
root 1.76932 15.3683 0.368313 -184.932 1.28225 -173.759
lowerback 9.05683 -0.222676 6.37244
upperback -8.59267 1.6205 2.2034
thorax -14.6032 0.501446 -1.52695
lowerneck -16.6096 4.40361 7.88807
upperneck 30.7885 2.46916 -0.748644
head 13.29 1.22013 -1.40851
rclavicle -7.65321e-015 2.32578e-014
rhumerus -51.6035 13.133 -62.6205
rradius 39.8387
rwrist -11.9097
rhand -25.9421 -19.0845
rfingers 7.12502
rthumb 0.601646 -49.0634
lclavicle -7.65321e-015 2.32578e-014
lhumerus -49.8726 -18.443 88.6666
lradius 51.0817
lwrist -19.4319
lhand -35.4752 22.7987
lfingers 7.12502
lthumb -8.60339 52.6034
rfemur -5.25397 20.7651 30.3522
rtibia 16.6936
rfoot 354.148 2.48445
rtoes -9.60146
lfemur 0.00365584 -6.55611 -9.98902
ltibia 55.3996
lfoot 346.563 18.8561
ltoes -69.7374
527
root 1.62345 15.3354 0.471582 -184.337 1.1673 -174.226
lowerback 8.5497 -0.300945 5.77776
upperback -8.89916 1.37751 1.86475
thorax -14.6568 0.431079 -1.51668
lowerneck -17.8601 4.36395 7.99891
upperneck 31.1617 2.34609 -0.903862
head 13.7165 1.1818 -1.49781
rclavicle 9.93923e-016 2.23633e-014
rhumerus -53.5533 13.2872 -62.4799
rradius 40.336
rwrist -12.6075
rhand -26.4663 -19.8434
rfingers 7.12502
rthumb 0.0954057 -49.8231
lclavicle 9.93923e-016 2.23633e-014
lhumerus -48.9105 -18.4043 88.5584
lradius 53.544
lwrist -18.6657
lhand -35.8469 22.1526
lfingers 7.12502
lthumb -8.96203 51.9422
rfemur -6.83483 20.6693 28.6919
rtibia 17.3583
rfoot 353.893 2.73718
rtoes -11.7024
lfemur 2.9593 -8.49187 -11.1838
ltibia 50.9764
lfoot 347.385 19.2835
ltoes -69.6771
528
root 1.47061 15.3201 0.596684 -184.1 0.926548 -174.638
lowerback 8.55404 -0.39969 5.19602
upperback -9.02737 1.11264 1.55398
thorax -14.8217 0.337911 -1.48221
lowerneck -18.4059 4.21414 7.77325
upperneck 30.9077 2.24213 -0.919394
head 13.7105 1.13495 -1.46952
rclavicle 1.03663e-015 -1.72415e-014
rhumerus -55.5442 13.1454 -62.3737
rradius 41.1494
rwrist -13.6889
rhand -26.7974 -20.2177
rfingers 7.12502
rthumb -0.224391 -50.1973
lclavicle 1.03663e-015 -1.72415e-014
lhumerus -47.8272 -18.3832 88.5272
lradius 56.0709
lwrist -17.8935
lhand -36.0264 21.5281
lfingers 7.12502
lthumb -9.13528 51.3102
rfemur -8.06436 20.3966 27.0689
rtibia 17.951
rfoot 353.762 2.79754
rtoes -13.7041
lfemur 6.14261 -10.7894 -12.7795
ltibia 45.954
lfoot 348.616 20.2754
ltoes -69.5028
529
root 1.31605 15.2905 0.73902 -183.556 0.811492 -174.891
lowerback 8.39201 -0.43292 4.64781
upperback -9.18406 0.960435 1.32898
thorax -14.9095 0.310057 -1.39437
lowerneck -20.3809 4.24751 8.58607
upperneck 31.247 2.08848 -1.43742
head 14.3049 1.14638 -1.82255
rclavicle 7.47927e-015 -2.127e-014
rhumerus -57.7153 12.9323 -62.607
rradius 42.2551
rwrist -15.0743
rhand -27.0831 -20.4579
rfingers 7.12502
rthumb -0.500329 -50.4371
lclavicle 7.47927e-015 -2.127e-014
lhumerus -46.7201 -18.8059 88.6781
lradius 58.6024
lwrist -16.8856
lhand -35.9003 21.5174
lfingers 7.12502
lthumb -9.01359 51.3048
rfemur -9.93004 20.3026 25.6387
rtibia 19.0328
rfoot 353.69 2.87786
rtoes -15.4617
lfemur 9.09157 -12.79 -14.1815
ltibia 40.2745
lfoot 347.21 20.6089
ltoes -69.5483
530
root 1.14599 15.2546 0.902311 -183.023 0.590386 -175.287
lowerback 8.39022 -0.448589 4.0241
upperback -9.28768 0.811028 1.06217
thorax -15.0333 0.284389 -1.31207
lowerneck -19.8536 4.05417 7.51503
upperneck 30.3006 2.17546 -0.897591
head 13.7453 1.15305 -1.3918
rclavicle -1.63997e-015 -3.18055e-015
rhumerus -59.7549 12.1958 -62.7442
rradius 43.2358
rwrist -16.0085
rhand -26.9985 -20.4017
rfingers 7.12502
rthumb -0.418606 -50.381
lclavicle -1.63997e-015 -3.18055e-015
lhumerus -45.5819 -19.6637 89.0073
lradius 61.0805
lwrist -15.9101
lhand -35.7077 21.9456
lfingers 7.12502
lthumb -8.82776 51.7409
rfemur -12.0992 20.1109 23.8707
rtibia 20.4381
rfoot 353.685 2.90964
rtoes -17.1667
lfemur 11.6243 -14.6466 -15.987
ltibia 34.9722
lfoot 342.861 20.4964
ltoes -70.8054
531
root 0.971856 15.2189 1.08732 -182.462 0.242451 -175.884
lowerback 8.52032 -0.503375 3.02643
upperback -9.36201 0.559808 0.881807
thorax -15.2091 0.257603 -0.902295
lowerneck -18.9195 3.77004 6.94675
upperneck 28.8706 2.22071 -0.992609
head 12.9295 1.12399 -1.31041
rclavicle -6.95746e-016 2.18663e-015
rhumerus -61.5205 11.3485 -62.7076
rradius 43.9927
rwrist -16.3322
rhand -26.8444 -20.2475
rfingers 7.12502
rthumb -0.269831 -50.227
lclavicle -6.95746e-016 2.18663e-015
lhumerus -44.5185 -20.1537 89.4496
lradius 63.4487
lwrist -15.6978
lhand -35.5749 22.2626
lfingers 7.12502
lthumb -8.69958 52.0633
rfemur -14.4182 19.7871 21.6945
rtibia 21.7802
rfoot 353.806 2.76135
rtoes -19.0531
lfemur 13.4061 -16.1839 -18.0835
ltibia 30.5862
lfoot 338.185 20.8835
ltoes -70.2963
